<svg xmlns="http://www.w3.org/2000/svg" version="1.1" xmlns:xlink="http://www.w3.org/1999/xlink" xmlns:svgjs="http://svgjs.com/svgjs" width="1440" height="560" preserveAspectRatio="none" viewBox="0 0 1440 560"><g mask="url(&quot;#SvgjsMask1021&quot;)" fill="none"><rect width="1440" height="560" x="0" y="0" fill="rgba(33, 36, 40, 1)"></rect><path d="M 0,159 C 57.6,148.6 172.8,104.6 288,107 C 403.2,109.4 460.8,178 576,171 C 691.2,164 748.8,77.4 864,72 C 979.2,66.6 1036.8,135.4 1152,144 C 1267.2,152.6 1382.4,120.8 1440,115L1440 560L0 560z" fill="rgba(37, 42, 49, 1)"></path><path d="M 0,346 C 72,381 216,510 360,521 C 504,532 576,412 720,401 C 864,390 936,487.8 1080,466 C 1224,444.2 1368,326.8 1440,292L1440 560L0 560z" fill="rgba(33, 36, 40, 1)"></path></g><defs><mask id="SvgjsMask1021"><rect width="1440" height="560" fill="#ffffff"></rect></mask></defs></svg>